<?xml version="1.0" standalone="no"?>
<!DOCTYPE svg PUBLIC "-//W3C//DTD SVG 20010904//EN"
 "http://www.w3.org/TR/2001/REC-SVG-20010904/DTD/svg10.dtd">
<svg version="1.0" xmlns="http://www.w3.org/2000/svg"
 width="700.000000pt" height="700.000000pt" viewBox="0 0 700.000000 700.000000"
 preserveAspectRatio="xMidYMid meet">
<metadata>
Created by potrace 1.14, written by Peter Selinger 2001-2017
</metadata>
<g transform="translate(0.000000,700.000000) scale(0.100000,-0.100000)"
fill="#000000" stroke="none">
<path d="M2279 5893 c-69 -120 -440 -762 -824 -1428 -384 -665 -769 -1333
-856 -1482 l-157 -273 1467 0 1468 0 528 -915 c290 -504 531 -912 536 -908 8
10 1949 3373 1956 3390 4 10 -295 13 -1462 15 l-1466 3 -463 800 c-562 973
-586 1015 -595 1015 -4 0 -63 -98 -132 -217z m506 -935 c204 -352 371 -647
373 -654 3 -12 -55 -14 -342 -14 -190 0 -346 -2 -346 -5 0 -2 169 -297 375
-654 206 -358 375 -655 375 -661 0 -7 -363 -10 -1166 -10 -1070 0 -1166 1
-1160 16 11 28 1511 2623 1516 2624 3 0 172 -289 375 -642z m842 -1458 c166
-289 303 -528 303 -532 0 -5 -87 -8 -193 -8 -172 0 -196 2 -209 18 -12 14
-560 959 -597 1030 l-12 22 202 -2 202 -3 304 -525z m2204 308 c-906 -1569
-1383 -2394 -1389 -2400 -4 -4 -176 286 -383 645 l-377 652 348 5 348 5 -35
60 c-20 33 -51 88 -70 123 -19 34 -173 303 -343 597 l-308 535 1168 0 1169 0
-128 -222z"/>
</g>
</svg>
