<?xml version="1.0" standalone="no"?>
<!DOCTYPE svg PUBLIC "-//W3C//DTD SVG 20010904//EN"
 "http://www.w3.org/TR/2001/REC-SVG-20010904/DTD/svg10.dtd">
<svg version="1.0" xmlns="http://www.w3.org/2000/svg"
 width="682.000000pt" height="682.000000pt" viewBox="0 0 682.000000 682.000000"
 preserveAspectRatio="xMidYMid meet">
<metadata>
Created by potrace 1.11, written by Peter Selinger 2001-2013
</metadata>
<g transform="translate(0.000000,682.000000) scale(0.100000,-0.100000)"
fill="#000000" stroke="none">
<path d="M1962 5803 c-88 -153 -526 -910 -971 -1683 l-811 -1405 1751 -5 1751
-5 568 -985 c313 -542 572 -985 575 -985 3 0 442 756 976 1680 l969 1680
-1751 5 -1751 5 -567 982 c-311 540 -569 984 -573 988 -3 3 -78 -119 -166
-272z m677 -827 c276 -478 501 -870 501 -872 0 -2 -59 -5 -130 -6 l-130 -3
365 -634 c201 -348 364 -635 362 -637 -2 -2 -731 -3 -1620 -2 l-1617 3 851
1475 c468 811 862 1495 876 1518 14 24 29 40 33 35 4 -4 233 -399 509 -877z
m901 -1563 c183 -318 335 -581 337 -585 2 -5 -27 -8 -65 -8 l-70 0 -332 578
c-183 317 -335 580 -337 585 -2 4 27 7 65 7 l70 0 332 -577z m3026 550 c-75
-142 -1733 -3003 -1741 -3003 -8 0 -1015 1732 -1015 1746 0 2 59 5 130 6 l130
3 -361 625 c-199 344 -363 631 -366 638 -4 9 323 12 1616 12 l1622 0 -15 -27z"/>
<path d="M277 2573 c-4 -3 -7 -69 -7 -145 l0 -138 30 0 c28 0 30 2 30 40 0 40
0 40 39 40 36 0 42 -4 62 -40 18 -32 28 -40 51 -40 15 0 28 2 28 5 0 3 -12 23
-26 45 l-26 39 26 31 c46 56 32 130 -29 156 -35 14 -166 20 -178 7z m161 -59
c25 -18 29 -56 7 -74 -9 -7 -38 -15 -65 -18 l-50 -5 0 57 0 56 43 0 c23 0 53
-7 65 -16z"/>
<path d="M680 2435 l0 -145 105 0 105 0 0 25 c0 25 -1 25 -80 25 l-80 0 0 35
0 35 70 0 c68 0 70 1 70 25 0 24 -2 25 -70 25 l-70 0 0 35 0 35 80 0 c79 0 80
0 80 25 l0 25 -105 0 -105 0 0 -145z"/>
<path d="M1030 2555 c0 -25 1 -25 80 -25 44 0 80 -2 80 -6 0 -3 -36 -48 -80
-100 -44 -53 -80 -104 -80 -115 0 -18 8 -19 120 -19 l120 0 0 25 c0 23 -2 24
-80 27 l-81 3 81 97 c44 53 80 106 80 117 0 20 -5 21 -120 21 l-120 0 0 -25z"/>
<path d="M1420 2493 c0 -158 30 -203 135 -203 96 0 125 46 125 195 l0 96 -27
-3 -28 -3 -2 -90 c-4 -119 -7 -131 -43 -144 -33 -11 -55 -7 -82 17 -15 13 -18
32 -18 119 l0 103 -30 0 -30 0 0 -87z"/>
<path d="M1850 2435 l0 -145 91 0 c88 0 90 1 87 23 -3 20 -9 22 -65 25 l-63 3
0 119 0 120 -25 0 -25 0 0 -145z"/>
<path d="M2140 2555 c0 -23 4 -25 45 -25 l45 0 0 -120 0 -120 25 0 25 0 0 120
0 120 45 0 c41 0 45 2 45 25 l0 25 -115 0 -115 0 0 -25z"/>
<path d="M2545 2444 c-33 -75 -61 -140 -63 -145 -2 -5 9 -9 25 -9 23 0 31 6
40 30 11 29 12 30 83 30 71 0 72 -1 83 -30 9 -24 17 -30 40 -30 34 0 38 -15
-40 163 -51 117 -58 127 -82 127 -24 0 -31 -11 -86 -136z m114 4 l20 -48 -48
0 -49 0 21 55 c12 30 25 51 29 47 4 -4 16 -28 27 -54z"/>
<path d="M2890 2555 c0 -23 4 -25 45 -25 l45 0 0 -120 0 -120 25 0 25 0 0 120
0 120 45 0 c41 0 45 2 45 25 l0 25 -115 0 -115 0 0 -25z"/>
<path d="M3267 2573 c-4 -3 -7 -69 -7 -145 l0 -138 110 0 110 0 0 25 c0 25 -1
25 -80 25 l-80 0 0 35 0 35 70 0 c68 0 70 1 70 25 0 24 -2 25 -70 25 l-70 0 0
35 0 35 75 0 c73 0 75 1 75 25 0 25 0 25 -98 25 -54 0 -102 -3 -105 -7z"/>
<path d="M2440 2003 c0 -4 23 -70 52 -145 52 -134 54 -138 83 -138 29 0 32 4
74 113 25 61 50 127 58 145 13 32 13 32 -16 32 -27 0 -30 -5 -66 -102 -21 -57
-41 -107 -45 -111 -4 -5 -25 40 -47 100 -36 97 -43 108 -67 111 -14 2 -26 0
-26 -5z"/>
<path d="M2925 1996 c-76 -33 -109 -116 -76 -191 28 -64 69 -87 148 -83 67 4
100 25 129 80 62 119 -74 250 -201 194z m109 -47 c39 -18 60 -71 46 -115 -15
-43 -48 -66 -97 -66 -29 0 -43 7 -65 31 -74 83 14 196 116 150z"/>
<path d="M3260 1985 c0 -23 4 -25 45 -25 l45 0 0 -120 0 -120 30 0 30 0 0 120
0 120 46 0 c41 0 45 2 42 23 -3 21 -7 22 -120 25 l-118 3 0 -26z"/>
</g>
</svg>
