<?xml version="1.0" encoding="UTF-8"?>
<svg width="145" height="44" viewBox="0 0 145 44" fill="none" xmlns="http://www.w3.org/2000/svg">
<path d="M17.69 0.902344L11.4187 1.84082L0 22.018L11.4187 42.1591L17.69 43.0976L5.51 22.018L17.69 0.902344ZM33.7125 0.902344L39.9837 1.84082L51.4025 22.018L39.9837 42.1591L33.7125 43.0976L45.8925 22.018L33.7125 0.902344Z" fill="#BBBBBB"/>
<path d="M17.6898 0.902379L25.701 0V22.018H5.50977L17.6898 0.902379Z" fill="#F7F7F7"/>
<path d="M17.6898 43.0976L25.701 44V22.0181H5.50977L17.6898 43.0976Z" fill="#EDEDED"/>
<path d="M33.7124 43.0976L25.7012 44V22.0181H45.8924L33.7124 43.0976Z" fill="#D9D9D9"/>
<path d="M33.7124 0.902379L25.7012 0V22.018H45.8924L33.7124 0.902379Z" fill="#F2F2F2"/>
<path d="M72.5728 18.4449C71.195 18.7719 69.7842 18.9414 68.3678 18.9502C67.3468 18.9898 66.3271 18.843 65.3591 18.517C64.6257 18.2215 64.0043 17.7038 63.5828 17.0371C63.1363 16.3053 62.829 15.4977 62.6766 14.6549C62.5162 13.5191 62.4435 12.3727 62.4591 11.2258C62.4591 8.33821 62.8578 6.31689 63.6916 5.19794C64.5253 4.07899 66.0116 3.46537 68.1866 3.46537C69.6795 3.50064 71.1634 3.70653 72.6091 4.07899L72.5003 6.49736C71.3013 6.30331 70.0899 6.19475 68.8753 6.17251C67.8966 6.17251 67.2078 6.31689 66.8091 6.56955C66.4103 6.82222 66.0841 7.29146 65.9028 8.01336C65.7216 8.73526 65.5766 9.9625 65.5766 11.6951C65.5766 13.4276 65.7941 14.6188 66.1928 15.3046C66.5916 15.9904 67.4253 16.2791 68.6216 16.2791C69.9202 16.2855 71.2172 16.189 72.5003 15.9904L72.5728 18.4449ZM75.1828 8.95183C75.9803 7.94117 77.2853 7.43584 79.0978 7.43584C80.9103 7.43584 82.2153 7.94117 83.0128 8.95183C83.8103 9.9625 84.2091 11.3702 84.2091 13.175C84.2091 17.0371 82.5053 18.9502 79.0978 18.9502C75.6903 18.9502 74.0228 17.0371 74.0228 13.175C74.0228 11.3702 74.4216 9.9625 75.1828 8.95183ZM77.5028 15.6655C77.7928 16.207 78.3366 16.4596 79.0978 16.4596C79.8591 16.4596 80.4391 16.207 80.7291 15.6655C81.0818 14.8842 81.2433 14.0306 81.2003 13.175C81.2475 12.3307 81.0857 11.4879 80.7291 10.7205C80.4391 10.2152 79.8953 9.9264 79.0978 9.9264C78.7842 9.89913 78.4692 9.9589 78.1877 10.0991C77.9061 10.2392 77.6691 10.4543 77.5028 10.7205C77.1766 11.2258 77.0316 12.056 77.0316 13.175C77.0316 14.2939 77.1766 15.1241 77.5028 15.6655ZM95.7366 3.28489V18.6975H92.8003V18.2283C91.974 18.6715 91.0559 18.9186 90.1178 18.9502C88.5228 18.9502 87.3991 18.517 86.7828 17.5786C86.1666 16.6401 85.8403 15.1963 85.8403 13.175C85.8403 11.1536 86.2028 9.74593 86.9641 8.80745C87.7253 7.86898 88.8491 7.43584 90.4078 7.43584C91.0651 7.45529 91.7198 7.52772 92.3653 7.65241L92.8003 7.76069V3.28489H95.7366ZM92.4741 16.0626L92.8003 15.9904V10.2152C92.0828 10.082 91.3552 10.0096 90.6253 9.99859C89.4291 9.99859 88.8491 11.0454 88.8491 13.175C88.8491 14.2939 88.9578 15.1241 89.2478 15.5933C89.3651 15.8321 89.5531 16.0294 89.7864 16.1585C90.0198 16.2875 90.2873 16.3423 90.5528 16.3152C91.2016 16.3153 91.8476 16.2304 92.4741 16.0626ZM101.464 15.9182C101.886 16.2491 102.414 16.4159 102.95 16.3874C104.328 16.3874 105.524 16.3152 106.612 16.2431L107.228 16.1709V18.3366C105.739 18.7426 104.204 18.9609 102.66 18.9863C100.993 18.9863 99.7603 18.517 99.0353 17.6508C98.3103 16.7845 97.9116 15.3407 97.9116 13.3554C97.9116 9.42107 99.5066 7.43584 102.769 7.43584C106.032 7.43584 107.59 9.09621 107.59 12.417L107.373 14.4744H100.92C100.896 14.7403 100.932 15.0084 101.026 15.2584C101.12 15.5085 101.27 15.734 101.464 15.9182ZM104.727 12.2004C104.727 11.3341 104.582 10.7205 104.292 10.3595C104.038 10.0347 103.53 9.85421 102.842 9.85421C102.153 9.85421 101.645 10.0347 101.355 10.3956C101.065 10.7566 100.92 11.3702 100.884 12.2004H104.727ZM118.103 10.2152V18.6975H115.13V10.2152H113.97V7.6885H115.13V7.21926C115.13 5.63108 115.384 4.54822 115.855 3.93461C116.327 3.32099 117.16 3.03223 118.393 3.03223C119.074 3.04921 119.753 3.12164 120.423 3.2488L120.894 3.32099V5.73936L119.263 5.66717C119.094 5.64989 118.923 5.67371 118.765 5.73657C118.607 5.79944 118.467 5.89948 118.357 6.02813C118.184 6.41315 118.109 6.83469 118.139 7.25536V7.6885H120.822V10.2152H118.103ZM123.033 8.95183C123.794 7.94117 125.099 7.43584 126.912 7.43584C128.724 7.43584 130.065 7.94117 130.827 8.95183C131.588 9.9625 132.023 11.3702 132.023 13.175C132.023 17.0371 130.319 18.9502 126.912 18.9502C123.504 18.9502 121.837 17.0371 121.837 13.175C121.837 11.3702 122.235 9.9625 123.033 8.95183ZM125.317 15.6655C125.607 16.207 126.15 16.4596 126.912 16.4596C127.673 16.4596 128.253 16.207 128.543 15.6655C128.833 15.1241 129.014 14.2939 129.014 13.175C129.014 12.056 128.869 11.2258 128.543 10.7205C128.217 10.2152 127.709 9.9625 126.912 9.9625C126.114 9.9625 125.607 10.2152 125.317 10.7205C125.027 11.2258 124.845 12.056 124.845 13.175C124.845 14.2939 124.99 15.1241 125.317 15.6655ZM134.162 18.6975V7.6885H137.098V8.87964C138.184 8.18833 139.388 7.69914 140.65 7.43584V10.3956C139.609 10.6035 138.581 10.8686 137.569 11.1897L137.134 11.3341V18.6975H134.162ZM66.0841 35.6983V40.7156H63.0391V25.7361H68.8753C72.4278 25.7361 74.1678 27.3965 74.1678 30.6811C74.1678 32.6303 73.4428 34.0741 71.9566 34.9764L74.0953 40.7156H70.7603L69.0203 35.6983H66.0841ZM70.5428 32.4498C70.9087 31.9347 71.0877 31.3109 71.0503 30.6811C71.0819 30.0687 70.8886 29.4657 70.5066 28.9846C70.3026 28.7595 70.0495 28.5839 69.7667 28.4712C69.4839 28.3586 69.179 28.312 68.8753 28.3349H66.0841V33.0995H68.9116C69.2153 33.1224 69.5202 33.0758 69.803 32.9632C70.0857 32.8506 70.3388 32.6749 70.5428 32.4498ZM76.8866 30.9338C77.6841 29.9592 78.9891 29.4539 80.8016 29.4539C82.6141 29.4539 83.9553 29.9592 84.7166 30.9338C85.4778 31.9083 85.8766 33.3522 85.8766 35.193C85.8766 39.0552 84.2091 40.9682 80.8016 40.9682C77.3941 40.9682 75.7266 39.0552 75.7266 35.193C75.7266 33.3522 76.1253 31.9444 76.8866 30.9338ZM79.1703 37.6836C79.3481 37.9471 79.5925 38.1593 79.8789 38.2987C80.1653 38.4381 80.4836 38.4998 80.8016 38.4777C81.5991 38.4777 82.1428 38.1889 82.4328 37.6836C82.7856 36.9022 82.9471 36.0486 82.9041 35.193C82.9513 34.3371 82.7896 33.4825 82.4328 32.7024C82.1428 32.1971 81.5991 31.9444 80.8016 31.9444C80.4865 31.9146 80.1692 31.9692 79.8824 32.1024C79.5956 32.2357 79.3498 32.4429 79.1703 32.7024C78.8803 33.2439 78.7353 34.038 78.7353 35.193C78.7353 36.3481 78.8803 37.1422 79.1703 37.6836ZM91.0241 40.7156H88.0516V29.7065H90.9878V30.3202C91.7703 29.8163 92.6683 29.5182 93.5978 29.4539C94.7941 29.4539 95.7003 29.7787 96.3528 30.4645C97.5016 29.8433 98.78 29.4972 100.087 29.4539C101.537 29.4539 102.552 29.8509 103.132 30.7172C103.712 31.5835 103.965 32.8829 103.965 34.7599V40.7156H100.993V34.8321C101.039 34.1219 100.94 33.4097 100.703 32.7385C100.587 32.519 100.408 32.3394 100.188 32.2234C99.9677 32.1074 99.7176 32.0605 99.4703 32.0888C98.8806 32.1138 98.2963 32.2108 97.7303 32.3776L97.4041 32.4859C97.4766 33.6048 97.5128 34.435 97.5128 35.0125V40.7156H94.5403V35.0486C94.5759 34.2678 94.4778 33.4866 94.2503 32.7385C94.0691 32.3054 93.6341 32.0888 92.9816 32.0888C92.4021 32.097 91.8274 32.1944 91.2778 32.3776L91.0241 32.4859V40.7156ZM115.058 33.1356V37.7197C115.055 37.9717 115.118 38.2202 115.239 38.4416C115.299 38.5306 115.38 38.6035 115.475 38.6539C115.569 38.7043 115.675 38.7305 115.783 38.7303L115.71 40.9682C115.103 40.9881 114.495 40.9397 113.898 40.8239C113.419 40.6956 112.966 40.4881 112.557 40.2102C111.539 40.6999 110.424 40.9587 109.294 40.9682C107.01 40.9682 105.85 39.7771 105.85 37.3587C105.85 36.1796 106.177 35.3494 106.829 34.8682C107.445 34.3628 108.424 34.0741 109.729 34.0019L112.085 33.8214V33.1356C112.102 32.9678 112.085 32.7983 112.036 32.6371C111.986 32.476 111.904 32.3263 111.795 32.1971C111.496 31.999 111.138 31.9097 110.78 31.9444L106.648 32.1249L106.539 30.0675C108.002 29.6521 109.513 29.4336 111.034 29.4178C112.484 29.4178 113.499 29.7426 114.115 30.3202C114.732 30.8977 115.058 31.8362 115.058 33.1356ZM110.092 36.0593C109.258 36.1315 108.859 36.5646 108.859 37.3587C108.859 38.1528 109.222 38.586 109.947 38.586C110.561 38.5698 111.17 38.4727 111.759 38.2972L112.085 38.225V35.8788L110.092 36.0593ZM120.858 40.7156H117.885V29.7065H120.822V30.3202C121.648 29.7972 122.598 29.4986 123.577 29.4539C125.075 29.4539 126.09 29.887 126.622 30.7533C127.202 31.6196 127.492 32.9551 127.492 34.7238V40.7156H124.519V34.8321C124.557 34.1193 124.446 33.4064 124.193 32.7385C123.975 32.3054 123.504 32.0888 122.852 32.0888C122.258 32.0725 121.667 32.1706 121.112 32.3776L120.858 32.4859V40.7156ZM130.102 28.2988V25.3029H133.074V28.2988H130.102ZM130.102 40.7156V29.7065H133.074V40.7156H130.102ZM144.275 33.1356V37.7197C144.273 37.9717 144.335 38.2202 144.457 38.4416C144.516 38.5306 144.597 38.6035 144.692 38.6539C144.787 38.7043 144.893 38.7305 145 38.7303L144.928 40.9682C144.32 40.9881 143.712 40.9397 143.115 40.8239C142.625 40.6962 142.16 40.4888 141.738 40.2102C140.734 40.7027 139.631 40.9619 138.512 40.9682C136.228 40.9682 135.068 39.7771 135.068 37.3587C135.068 36.1676 135.394 35.3374 136.01 34.8682C136.627 34.3989 137.642 34.0741 138.947 34.0019L141.303 33.8214V33.1356C141.32 32.9678 141.303 32.7983 141.253 32.6371C141.203 32.476 141.122 32.3263 141.013 32.1971C140.714 31.999 140.355 31.9097 139.998 31.9444L135.865 32.1249L135.757 30.0675C137.219 29.6521 138.731 29.4336 140.252 29.4178C141.702 29.4178 142.717 29.7426 143.333 30.3202C143.949 30.8977 144.275 31.8362 144.275 33.1356ZM139.309 36.0593C138.475 36.1315 138.077 36.5646 138.077 37.3587C138.077 38.1528 138.439 38.586 139.128 38.586C139.754 38.573 140.376 38.4759 140.977 38.2972L141.303 38.225V35.8788L139.309 36.0593Z" fill="#BBBBBB"/>
</svg>
