<?xml version="1.0" encoding="utf-8"?>
<!-- Generator: Adobe Illustrator 24.2.1, SVG Export Plug-In . SVG Version: 6.00 Build 0)  -->
<svg version="1.1" id="Layer_1" xmlns="http://www.w3.org/2000/svg" xmlns:xlink="http://www.w3.org/1999/xlink" x="0px" y="0px"
	 viewBox="0 0 131.49 70" style="enable-background:new 0 0 131.49 70;" xml:space="preserve">
<style type="text/css">
	.st0{fill:#FFCB01;}
</style>
<g>
	<path d="M92.34,19.77h-33.5L75.59,48.8L92.34,19.77z M57.13,18.79h36.92L75.59,50.77L57.13,18.79z"/>
	<path d="M34.76,31h33.5L51.51,1.97L34.76,31z M69.97,31.98H33.05L51.51,0L69.97,31.98z"/>
	<g>
		<path d="M6.7,69.89l-2.16-3.08c-0.27,0.02-0.48,0.03-0.63,0.03H1.43v3.05H0V59.87h3.91c1.3,0,2.32,0.31,3.06,0.93
			s1.12,1.47,1.12,2.56c0,0.77-0.19,1.43-0.57,1.97c-0.38,0.54-0.93,0.94-1.63,1.19l2.38,3.36H6.7z M5.94,65.03
			c0.48-0.39,0.72-0.95,0.72-1.67c0-0.73-0.24-1.28-0.72-1.67c-0.48-0.39-1.17-0.58-2.08-0.58H1.43v4.51h2.43
			C4.77,65.62,5.46,65.43,5.94,65.03z"/>
		<path d="M19.39,68.64v1.25h-7.27V59.87h7.07v1.24h-5.64v3.08h5.02v1.22h-5.02v3.23H19.39z"/>
		<path d="M30.91,68.64v1.25h-8.37v-0.97l6.3-7.8h-6.2v-1.24h8.09v0.97l-6.27,7.8H30.91z"/>
		<path d="M35.58,68.86c-0.74-0.76-1.12-1.86-1.12-3.29v-5.7h1.43v5.64c0,2.15,0.94,3.22,2.82,3.22c0.92,0,1.62-0.26,2.1-0.79
			c0.49-0.53,0.73-1.34,0.73-2.43v-5.64h1.39v5.7c0,1.44-0.37,2.54-1.12,3.3C41.07,69.62,40.03,70,38.7,70S36.32,69.62,35.58,68.86z
			"/>
		<path d="M47.58,59.87h1.43v8.77h5.42v1.25h-6.86V59.87z"/>
		<path d="M58.86,61.11h-3.43v-1.24h8.29v1.24h-3.43v8.77h-1.42V61.11z"/>
		<path d="M72.87,67.38h-5.32l-1.1,2.5h-1.47l4.54-10.02h1.42l4.55,10.02h-1.5L72.87,67.38z M72.37,66.24l-2.16-4.91l-2.16,4.91
			H72.37z"/>
		<path d="M80.17,61.11h-3.43v-1.24h8.29v1.24h-3.43v8.77h-1.42V61.11z"/>
		<path d="M95.57,68.64v1.25H88.3V59.87h7.07v1.24h-5.64v3.08h5.02v1.22h-5.02v3.23H95.57z"/>
		<path d="M108.17,59.87l-4.39,10.02h-1.42l-4.41-10.02h1.55l3.61,8.23l3.63-8.23H108.17z"/>
		<path d="M112.84,69.33c-0.81-0.44-1.45-1.06-1.91-1.84c-0.46-0.78-0.69-1.66-0.69-2.62s0.23-1.84,0.69-2.62
			c0.46-0.78,1.1-1.39,1.91-1.84c0.81-0.44,1.72-0.67,2.73-0.67c1,0,1.91,0.22,2.72,0.67c0.81,0.44,1.45,1.05,1.9,1.83
			c0.46,0.78,0.69,1.65,0.69,2.63c0,0.97-0.23,1.85-0.69,2.63c-0.46,0.78-1.09,1.39-1.9,1.83c-0.81,0.44-1.72,0.67-2.72,0.67
			C114.57,70,113.66,69.78,112.84,69.33z M117.56,68.23c0.59-0.33,1.05-0.79,1.39-1.38c0.34-0.59,0.51-1.24,0.51-1.97
			s-0.17-1.38-0.51-1.97c-0.34-0.59-0.8-1.05-1.39-1.38c-0.59-0.33-1.25-0.5-1.98-0.5c-0.73,0-1.4,0.17-2,0.5
			c-0.6,0.33-1.06,0.79-1.4,1.38c-0.34,0.59-0.51,1.24-0.51,1.97s0.17,1.38,0.51,1.97c0.34,0.59,0.81,1.05,1.4,1.38
			c0.6,0.33,1.26,0.5,2,0.5C116.31,68.73,116.97,68.56,117.56,68.23z"/>
		<path d="M126.64,61.11h-3.43v-1.24h8.29v1.24h-3.43v8.77h-1.42V61.11z"/>
	</g>
</g>
</svg>
